# AST/ASF file generated using VICON BodyLanguage
# -----------------------------------------------
:version 1.10
:name VICON
:units
  mass 1.0
  length 0.45
  angle deg
:documentation
   .ast/.asf automatically generated from VICON data using
   VICON BodyBuilder and BodyLanguage model FoxedUp or BRILLIANT.MOD
:root
   order TX TY TZ RX RY RZ
   axis XYZ
   position 0 0 0  
   orientation 0 0 0 
:bonedata
  begin
     id 1 
     name lhipjoint
     direction 0.521689 -0.742065 0.420928 
     length 2.47002 
     axis 0 0 0  XYZ
  end
  begin
     id 2 
     name lfemur
     direction 0.34202 -0.939693 0  
     length 7.24654  
     axis 0 0 20  XYZ
    dof rx ry rz
    limits (-160.0 20.0)
           (-70.0 70.0)
           (-60.0 70.0)
  end
  begin
     id 3 
     name ltibia
     direction 0.34202 -0.939693 0   
     length 8.04849   
     axis 0 0 20   XYZ
    dof rx
    limits (-10.0 170.0)
  end
  begin
     id 4 
     name lfoot
     direction 0.0745411 -0.2048 0.975961   
     length 1.72367   
     axis -90 7.62852e-016 20   XYZ
    dof rx rz
    limits (-45.0 90.0)
           (-70.0 20.0)
  end
  begin
     id 5 
     name ltoes
     direction 1.53556e-011 -4.21901e-011 1   
     length 0.87311   
     axis -90 7.62852e-016 20   XYZ
    dof rx
    limits (-90.0 20.0)
  end
  begin
     id 6 
     name rhipjoint
     direction -0.52849 -0.738415 0.418857   
     length 2.48223  
     axis 0 0 0  XYZ 
  end
  begin
     id 7 
     name rfemur
     direction -0.34202 -0.939693 0   
     length 7.15571   
     axis 0 0 -20   XYZ
    dof rx ry rz
    limits (-160.0 20.0)
           (-70.0 70.0)
           (-70.0 60.0)
  end
  begin
     id 8 
     name rtibia
     direction -0.34202 -0.939693 0   
     length 7.81659   
     axis 0 0 -20   XYZ
    dof rx
    limits (-10.0 170.0)
 end
 begin
     id 9 
     name rfoot
     direction -0.0917348 -0.252039 0.963359   
     length 1.84382  
     axis -90 -7.62852e-016 -20   XYZ
    dof rx rz
    limits (-45.0 90.0)
           (-20.0 70.0)
  end
  begin
     id 10 
     name rtoes
     direction -1.53551e-011 -4.21879e-011 1   
     length 0.927771   
     axis -90 -7.62852e-016 -20   XYZ
    dof rx
    limits (-90.0 20.0)
  end
  begin
     id 11 
     name lowerback
     direction 0.00583058 0.999822 0.0179296   
     length 2.1429   
     axis 0 0 0   XYZ
    dof rx ry rz
    limits (-20.0 45.0)
           (-30.0 30.0)
           (-30.0 30.0)
  end
  begin
     id 12 
     name upperback
     direction -0.0137999 0.999752 -0.0175071   
     length 2.14252   
     axis 0 0 0   XYZ
    dof rx ry rz
    limits (-20.0 45.0)
           (-30.0 30.0)
           (-30.0 30.0)
  end
  begin
     id 13 
     name thorax
     direction -0.0158036 0.99955 -0.0254909   
     length 2.1383   
     axis 0 0 0   XYZ
    dof rx ry rz
    limits (-20.0 45.0)
           (-30.0 30.0)
           (-30.0 30.0)
  end
  begin
     id 14 
     name lowerneck
     direction -0.0101179 0.999403 -0.0330262   
     length 1.65808   
     axis 0 0 0   XYZ
    dof rx ry rz
    limits (-20.0 45.0)
           (-30.0 30.0)
           (-30.0 30.0)
  end
  begin
     id 15 
     name upperneck
     direction 0.0497734 0.995978 -0.074501   
     length 1.5897   
     axis 0 0 0   XYZ
    dof rx ry rz
    limits (-20.0 45.0)
           (-30.0 30.0)
           (-30.0 30.0)
  end
  begin
     id 16
     name head
     direction 0.0189524 0.999519 -0.0245438  
     length 1.74024  
     axis 0 0 0   XYZ
    dof rx ry rz
    limits (-20.0 45.0)
           (-30.0 30.0)
           (-30.0 30.0)
  end
  begin
     id 17 
     name lclavicle
     direction 0.945604 0.324422 0.0241537  
     length 3.59089  
     axis 0 0 0   XYZ
    dof ry rz
    limits (-20.0 10.0)
           (0.0 20.0)
  end
  begin
     id 18 
     name lhumerus
     direction 1 -4.48964e-011 -2.63524e-027   
     length 5.2391   
     axis 180 -30 -90   XYZ
    dof rx ry rz
    limits (-60.0 90.0)
           (-90.0 90.0)
           (-90.0 90.0)
  end
  begin
     id 19
     name lradius
     direction 1 -4.48969e-011 3.86978e-028   
     length 3.31467   
     axis 180 -30 -90   XYZ
    dof rx
    limits (-10.0 170.0)
  end
  begin
     id 20
     name lwrist
     direction 1 -4.48963e-011 7.20928e-028   
     length 1.65734   
     axis -5.52449e-016 90 90   XYZ
    dof ry
    limits (-180.0 0.0)
 end
  begin
     id 21 
     name lhand
     direction 1 -4.48964e-011 1.44186e-027   
     length 0.9659   
     axis -9.20027e-016 90 90   XYZ
    dof rx rz
    limits (-90.0 90.0)
           (-45.0 45.0)
  end
  begin
     id 22 
     name lfingers
     direction 1 -4.48965e-011 2.88371e-027   
     length 0.778733   
     axis -1.84005e-015 90 90   XYZ
    dof rx
    limits (0.0 90.0)
  end
  begin
     id 23
     name lthumb
     direction 0.707107 -6.34931e-011 0.707107   
     length 1.11811   
     axis -90 45 2.85299e-015   XYZ
    dof rx rz
    limits (-45.0 45.0)
           (-45.0 45.0)
  end
  begin
     id 24 
     name rclavicle
     direction -0.923762 0.370785 0.0958234   
     length 3.54196  
     axis 0 0 0   XYZ 
    dof ry rz
    limits (-10.0 20.0)
           (-20.0 0.0)
  end
  begin
     id 25 
     name rhumerus
     direction -1 -4.48966e-011 1.18702e-017  
     length 5.30252   
     axis 180 30 90   XYZ
    dof rx ry rz
    limits (-90.0 60.0)
           (-90.0 90.0)
           (-90.0 90.0)
  end
  begin
     id 26 
     name rradius
     direction -1 -4.48966e-011 4.46736e-027   
     length 3.67875   
     axis 180 30 90   XYZ
    dof rx
    limits (-10.0 170.0)
  end
  begin
     id 27 
     name rwrist
     direction -1 -4.48966e-011 7.20928e-028   
     length 1.83937   
     axis -5.52449e-016 -90 -90   XYZ
    dof ry
    limits (-180.0 0.0)
  end
  begin
     id 28
     name rhand
     direction -1 -4.48973e-011 1.44186e-027   
     length 0.594811   
     axis -9.20027e-016 -90 -90   XYZ
    dof rx rz
    limits (-90.0 90.0)
           (-45.0 45.0)
  end
  begin
     id 29
     name rfingers
     direction -1 -4.48963e-011 2.88371e-027   
     length 0.479552   
     axis -1.84005e-015 -90 -90   XYZ
    dof rx
    limits (0.0 90.0)
  end
  begin
     id 30
     name rthumb
     direction -0.707107 -6.34932e-011 0.707107   
     length 0.688544   
     axis -90 -45 -2.85299e-015   XYZ
    dof rx rz
    limits (-45.0 45.0)
           (-45.0 45.0)
  end
:hierarchy
  begin
    root lhipjoint rhipjoint lowerback
    lhipjoint lfemur
    lfemur ltibia
    ltibia lfoot
    lfoot ltoes
    rhipjoint rfemur
    rfemur rtibia
    rtibia rfoot
    rfoot rtoes
    lowerback upperback
    upperback thorax
    thorax lowerneck lclavicle rclavicle
    lowerneck upperneck
    upperneck head
    lclavicle lhumerus
    lhumerus lradius
    lradius lwrist
    lwrist lhand lthumb
    lhand lfingers
    rclavicle rhumerus
    rhumerus rradius
    rradius rwrist
    rwrist rhand rthumb
    rhand rfingers
  end

#!OML:ASF E:\acrobat2\Project_11_07_03\Capture day 1\Session 1\Acrobat.ASF
:FULLY-SPECIFIED
:DEGREES
664
root 5.58708 28.0856 0.427171 4.65561 2.17545 -0.79263
lowerback -2.55205 0.842677 3.75332
upperback 0.00753292 1.01484 -0.210395
thorax 1.50802 0.535444 -2.28119
lowerneck 2.75439 -1.94585 -1.98602
upperneck 3.57757 -2.68656 2.27663
head 0.699982 -1.35369 1.03144
rclavicle 2.09966e-015 -4.47266e-015
rhumerus -41.1222 -3.53572 -80.4972
rradius 22.224
rwrist 12.3099
rhand 3.91329 -22.2231
rfingers 7.12502
rthumb 29.3329 -49.9291
lclavicle 2.09966e-015 -4.47266e-015
lhumerus -28.8396 -11.3339 88.4485
lradius 26.6884
lwrist 9.75285
lhand -10.4512 -12.7084
lfingers 7.12502
lthumb 15.5491 16.6865
rfemur 0.157653 4.02571 22.4039
rtibia 7.43428
rfoot -19.2304 -17.3336
rtoes -18.0686
lfemur -9.80887 2.11541 -14.7051
ltibia 19.1683
lfoot 356.37 -9.35645
ltoes 33.2299
665
root 5.60425 28.0762 0.436376 4.55198 2.21057 -0.878001
lowerback -2.65033 0.819751 3.81295
upperback 0.00831637 0.977595 -0.169821
thorax 1.56176 0.518121 -2.27309
lowerneck 2.72297 -2.0105 -1.87297
upperneck 3.51846 -2.76888 2.26212
head 0.686782 -1.39347 1.00764
rclavicle -1.06847e-015 -1.78906e-014
rhumerus -41.1093 -3.73602 -80.1751
rradius 22.0317
rwrist 12.3248
rhand 3.83259 -22.3
rfingers 7.12502
rthumb 29.2559 -50.0195
lclavicle -1.06847e-015 -1.78906e-014
lhumerus -29.024 -11.3094 88.6158
lradius 26.9145
lwrist 9.91821
lhand -10.2785 -12.5204
lfingers 7.12502
lthumb 15.7154 16.8615
rfemur 0.358487 3.98842 22.1577
rtibia 7.42553
rfoot -19.205 -17.3501
rtoes -18.9752
lfemur -9.55076 1.92851 -14.8989
ltibia 18.953
lfoot 356.818 -8.8734
ltoes 33.0471
666
root 5.62065 28.0659 0.444548 4.43495 2.25293 -0.953345
lowerback -2.7055 0.789854 3.84319
upperback 0.00315279 0.933993 -0.138617
thorax 1.58442 0.496796 -2.25912
lowerneck 2.70461 -2.07422 -1.70371
upperneck 3.45491 -2.84817 2.21444
head 0.668391 -1.43137 0.964162
rclavicle -8.47941e-015 1.76918e-014
rhumerus -41.1558 -3.96278 -79.876
rradius 21.9214
rwrist 12.2352
rhand 3.70832 -22.428
rfingers 7.12502
rthumb 29.1372 -50.1681
lclavicle -8.47941e-015 1.76918e-014
lhumerus -29.1932 -11.3278 88.7819
lradius 27.0719
lwrist 10.1199
lhand -10.1497 -12.4068
lfingers 7.12502
lthumb 15.8395 16.9653
rfemur 0.536846 3.92916 21.8893
rtibia 7.4603
rfoot -19.1247 -17.3724
rtoes -20.0689
lfemur -9.32571 1.78336 -15.1101
ltibia 18.9281
lfoot 356.936 -8.6509
ltoes 32.198
667
root 5.63525 28.0557 0.451017 4.30955 2.2939 -1.01652
lowerback -2.71383 0.756576 3.82729
upperback -0.00760056 0.889577 -0.112331
thorax 1.57433 0.474044 -2.22503
lowerneck 2.70526 -2.11656 -1.51365
upperneck 3.42206 -2.89893 2.15522
head 0.655056 -1.45489 0.913787
rclavicle -5.76476e-015 2.28602e-014
rhumerus -41.3028 -4.22877 -79.5917
rradius 21.9421
rwrist 12.0682
rhand 3.58636 -22.6278
rfingers 7.12502
rthumb 29.0207 -50.388
lclavicle -5.76476e-015 2.28602e-014
lhumerus -29.3378 -11.399 88.952
lradius 27.1474
lwrist 10.3394
lhand -10.0527 -12.3904
lfingers 7.12502
lthumb 15.9329 16.9742
rfemur 0.677831 3.89602 21.6101
rtibia 7.5693
rfoot -19.0557 -17.3922
rtoes -21.0888
lfemur -9.1287 1.72409 -15.3305
ltibia 19.004
lfoot 356.851 -8.62843
ltoes 31.1539
668
root 5.64748 28.0466 0.455267 4.18562 2.3246 -1.05471
lowerback -2.68576 0.722488 3.74363
upperback -0.0180092 0.847809 -0.0869831
thorax 1.54341 0.451744 -2.15421
lowerneck 2.70071 -2.1385 -1.34442
upperneck 3.4446 -2.92401 2.11123
head 0.659652 -1.46558 0.871492
rclavicle 1.21103e-014 1.11319e-014
rhumerus -41.4906 -4.50317 -79.319
rradius 22.0564
rwrist 11.8246
rhand 3.50029 -22.9023
rfingers 7.12502
rthumb 28.9385 -50.6767
lclavicle 1.21103e-014 1.11319e-014
lhumerus -29.4306 -11.5066 89.128
lradius 27.1227
lwrist 10.5269
lhand -10.0036 -12.4829
lfingers 7.12502
lthumb 15.9801 16.8779
rfemur 0.765797 3.92653 21.3174
rtibia 7.77797
rfoot -19.0665 -17.3911
rtoes -21.7561
lfemur -8.95801 1.76076 -15.5672
ltibia 19.1054
lfoot 356.726 -8.71265
ltoes 30.401
